<svg width="25" height="24" viewBox="0 0 25 24" fill="none" xmlns="http://www.w3.org/2000/svg">
<path d="M21.5 12C21.5001 14.1192 20.7524 16.1704 19.3887 17.7924C18.0249 19.4144 16.1325 20.5032 14.0448 20.8669C11.9571 21.2307 9.80798 20.8461 7.97601 19.7808C6.14404 18.7156 4.74671 17.0381 4.03014 15.0438C3.31357 13.0494 3.32371 10.8662 4.05879 8.87865C4.79387 6.89107 6.20672 5.22662 8.04851 4.17847C9.8903 3.13031 12.0429 2.76569 14.1271 3.14881C16.2114 3.53193 18.0935 4.63823 19.4422 6.27285C19.5091 6.34819 19.5602 6.43624 19.5924 6.53176C19.6245 6.62728 19.6371 6.7283 19.6294 6.82879C19.6216 6.92928 19.5937 7.02718 19.5472 7.11663C19.5008 7.20608 19.4368 7.28526 19.3591 7.34943C19.2814 7.4136 19.1915 7.46144 19.0949 7.4901C18.9983 7.51877 18.8968 7.52766 18.7967 7.51626C18.6966 7.50485 18.5998 7.47338 18.512 7.42372C18.4243 7.37406 18.3475 7.30723 18.2863 7.22723C17.1832 5.88971 15.6508 4.97567 13.9497 4.64058C12.2487 4.3055 10.4842 4.57008 8.95621 5.3893C7.42827 6.20853 6.23133 7.53181 5.56902 9.13402C4.90671 10.7362 4.81994 12.5184 5.32346 14.1774C5.82699 15.8364 6.8897 17.2697 8.33083 18.2335C9.77196 19.1973 11.5025 19.632 13.228 19.4638C14.9535 19.2955 16.5675 18.5347 17.7953 17.3106C19.0231 16.0866 19.7889 14.475 19.9625 12.75H12.5C12.3011 12.75 12.1103 12.671 11.9697 12.5304C11.829 12.3897 11.75 12.199 11.75 12C11.75 11.8011 11.829 11.6104 11.9697 11.4697C12.1103 11.3291 12.3011 11.25 12.5 11.25H20.75C20.9489 11.25 21.1397 11.3291 21.2803 11.4697C21.421 11.6104 21.5 11.8011 21.5 12Z" fill="#ED1C24"/>
</svg>
