<svg width="59" height="38" viewBox="0 0 59 38" fill="none" xmlns="http://www.w3.org/2000/svg">
<g clip-path="url(#clip0_0_48255)">
<path fill-rule="evenodd" clip-rule="evenodd" d="M38.5999 15.1239C39.6329 15.1239 40.4705 14.4164 40.4705 13.5434C40.4705 12.6708 39.6329 11.9644 38.5999 11.9644C37.5669 11.9644 36.729 12.6708 36.729 13.5434C36.7294 14.4164 37.5669 15.1239 38.5999 15.1239Z" fill="#005E9E"/>
<path fill-rule="evenodd" clip-rule="evenodd" d="M36.2441 23.2983C36.2441 22.83 35.9129 22.4245 35.4542 22.4175C34.2616 22.398 31.0783 22.4175 31.0783 22.4175C31.0783 22.4175 31.1187 18.1229 31.1154 15.5178H31.1168C31.1225 14.99 31.1377 14.0575 31.1305 13.7535C31.104 12.6893 29.5121 12.3568 28.6149 12.3145C27.8008 12.2756 27.8454 12.9797 27.8454 12.9797V23.5727C27.8454 24.2566 28.5918 24.4191 28.5918 24.4191H36.2528C36.2528 24.4191 36.2441 23.8583 36.2441 23.2983Z" fill="#005E9E"/>
<path fill-rule="evenodd" clip-rule="evenodd" d="M46.8268 15.9936C46.4718 12.3531 48.63 12.5276 49.4263 12.7106C49.7258 12.7552 49.7292 12.453 49.7239 12.367C49.6918 12.0694 49.5333 11.8166 49.3159 11.6355C48.543 10.9916 47.1062 11.0732 47.1062 11.0732C44.4961 11.0732 43.6843 12.9944 43.6843 14.5651C43.6843 15.3741 43.6014 15.9936 43.6014 15.9936H42.8127C42.3616 15.9936 42.179 16.4623 42.179 16.7019V17.2814H43.5803V21.236C40.7622 23.6135 40.1894 22.2685 40.1894 21.6804C40.1897 20.6311 40.1932 18.6594 40.1932 17.3784C40.1932 16.3257 38.6603 15.982 37.7502 15.939C36.8382 15.8956 36.9682 16.6046 36.9682 16.6046V21.8892C36.9682 23.7247 37.7055 24.588 39.4947 24.588C41.2382 24.588 42.9715 23.2122 43.6238 22.4609C43.6238 22.4609 43.6238 23.9006 43.6514 24.981C43.6555 25.1412 43.6608 25.2719 43.6665 25.3602C43.71 26.0483 44.4046 25.9637 44.4046 25.9637C46.8839 25.9629 46.8268 24.2252 46.8268 24.2252V17.3256H48.3744C48.6826 17.3256 49.21 17.1672 49.21 16.5922C49.21 16.2418 49.2021 15.9936 49.2021 15.9936H46.8268Z" fill="#005E9E"/>
<path fill-rule="evenodd" clip-rule="evenodd" d="M58.0113 22.0287C57.142 22.5577 56.0984 22.9874 54.5368 22.9874C53.0599 22.9874 51.9766 22.1485 51.9766 20.4146C51.9766 19.6306 52.4644 17.6926 54.367 17.6926C55.1024 17.678 55.5203 18.1538 55.5203 18.7648C55.5203 19.5629 54.6098 20.5224 52.6602 20.635C52.9495 21.4766 53.886 21.6888 54.6438 21.6888C55.7766 21.6888 58.4991 20.872 58.276 18.3601C58.1024 16.4056 56.2413 15.8262 54.7187 15.8262C51.1538 15.8262 48.4276 17.9992 48.6813 20.9461C48.9584 24.1648 51.8563 24.5777 53.7688 24.5777C55.7078 24.5777 57.4838 23.7631 58.141 22.8564C58.2669 22.6824 58.4079 22.4488 58.4079 22.2451C58.4079 22.019 58.231 21.8944 58.0113 22.0287Z" fill="#005E9E"/>
<path fill-rule="evenodd" clip-rule="evenodd" d="M33.0355 8.79747V5.52007H30.4469V8.79747H27.8371V0.626953H30.4469V3.69549H33.0355V0.626953H35.658V8.79747H33.0355Z" fill="#ED1C24"/>
<path fill-rule="evenodd" clip-rule="evenodd" d="M41.6669 4.36686C41.6669 2.67256 41.3123 2.29858 40.1231 2.29858H39.4569V7.1273H40.1231C41.3123 7.1273 41.6669 6.70916 41.6669 5.01486V4.36686ZM40.035 8.94176C38.8788 8.94176 38.0457 8.89796 36.9243 8.79763V0.627116C38.0457 0.527539 38.8459 0.484863 40.035 0.484863C42.9226 0.484863 44.2336 1.58433 44.2336 4.36686L44.234 5.01486C44.234 7.84116 42.9559 8.94176 40.035 8.94176Z" fill="#ED1C24"/>
<path fill-rule="evenodd" clip-rule="evenodd" d="M47.8673 2.38677V3.83849H51.011V5.46579H47.8673V8.79747H45.2573V0.626953H51.2553V2.38677H47.8673Z" fill="#ED1C24"/>
<path fill-rule="evenodd" clip-rule="evenodd" d="M55.6123 8.99604C53.023 8.99604 51.7234 8.08304 51.7234 5.09122V4.32156C51.7234 1.34137 53.023 0.428711 55.6119 0.428711C56.2664 0.428711 57.577 0.549626 58.0213 0.670164V2.39741C57.4329 2.35286 56.6438 2.30906 55.933 2.30906C54.8784 2.30869 54.3558 2.62726 54.3558 4.32156V5.09122C54.3558 6.80797 54.8784 7.1269 55.933 7.1269C56.6438 7.1269 57.4329 7.08277 58.0213 7.03824V8.75424C57.577 8.88597 56.2664 8.99604 55.6123 8.99604Z" fill="#ED1C24"/>
<path fill-rule="evenodd" clip-rule="evenodd" d="M24.3064 24.42V24.4196L17.4422 17.6233V17.624H7.03985V7.3257H7.04066L0.176354 0.529785H0.175598V24.42H24.3064Z" fill="#B11116"/>
<path fill-rule="evenodd" clip-rule="evenodd" d="M7.04048 7.3257H17.442V17.6233L24.3063 24.4196V0.529785H0.176208L7.04048 7.3257Z" fill="#ED1C24"/>
<path fill-rule="evenodd" clip-rule="evenodd" d="M6.44981 33.9742C7.07936 33.2194 7.0601 33.0488 7.0601 33.0488C7.0601 33.0488 6.90732 32.5576 6.3636 32.5385C5.81949 32.5198 5.18993 33.1524 5.06591 33.8802C4.94189 34.6072 5.56199 35.0414 6.44981 33.9742ZM13.2147 30.9329C13.347 31.0033 13.0415 31.6742 13.0415 31.6742C11.7389 31.3657 10.5845 33.1202 10.3796 33.7214C10.144 34.4129 10.1617 34.962 10.1617 34.962L9.64376 35.1567C9.38135 35.0489 9.6237 34.0494 9.6237 34.0494C7.2401 36.2648 7.01889 33.9876 7.01889 33.9876C5.92158 35.3596 4.3422 35.5052 4.41555 34.186C4.48437 32.9566 5.7087 32.1162 6.52921 32.138C7.34898 32.1612 7.68513 32.7758 7.68513 32.7758C7.62311 33.0416 7.25141 34.5405 8.21521 34.5349C8.61034 34.5323 9.67285 33.5246 9.67285 33.5246C9.67285 33.5246 9.71063 33.2992 9.72315 33.0349C9.73487 32.7695 9.71709 32.3592 9.71709 32.3592C9.71709 32.3592 10.091 32.217 10.2862 32.2364C10.4812 32.2551 10.4037 32.4479 10.4037 32.4479C10.4037 32.4479 10.1153 33.3564 10.1202 33.413C10.1243 33.471 10.1436 33.462 10.1436 33.462C11.4265 30.7985 13.0819 30.8622 13.2147 30.9329Z" fill="#ED1C24"/>
<path fill-rule="evenodd" clip-rule="evenodd" d="M39.5479 32.8499C39.3302 33.127 39.256 33.5702 39.256 33.5702C39.5827 33.5358 39.9616 33.4279 40.2179 33.3291C40.6894 33.1483 40.7786 32.5534 40.3937 32.4774C40.0641 32.4104 39.7835 32.5523 39.5479 32.8499ZM41.5096 34.159C41.5682 34.177 41.6888 34.3522 41.6699 34.4563C41.5765 34.6963 40.8052 35.0504 39.9986 35.0511C39.4651 35.0425 38.5826 34.8576 38.6473 33.8659C38.6681 33.5922 38.7494 33.3572 38.8405 33.161C39.1475 32.5048 39.6874 32.2435 40.0304 32.1398C40.2043 32.0874 40.4467 32.0638 40.6081 32.0795C40.9186 32.1076 41.3633 32.2349 41.3243 32.7316C41.2608 33.532 39.2527 33.8573 39.2527 33.8573C39.2518 33.9363 39.2957 34.5925 40.2282 34.6494C41.0434 34.6992 41.4491 34.1396 41.5096 34.159Z" fill="#ED1C24"/>
<path fill-rule="evenodd" clip-rule="evenodd" d="M47.6272 30.4625C47.7607 30.6853 47.6337 30.8773 47.4178 31.0454C47.1781 31.2322 46.8003 31.2281 46.7054 31.0405C46.6093 30.853 46.739 30.5715 46.9932 30.4117C47.248 30.2525 47.5202 30.2825 47.6272 30.4625Z" fill="#ED1C24"/>
<path fill-rule="evenodd" clip-rule="evenodd" d="M44.4798 32.2399C44.797 32.1433 45.4803 31.8595 45.348 32.1789C45.2164 32.4975 45.053 33.4273 45.005 33.8237C44.957 34.2209 44.7724 35.6191 44.6772 36.1151C44.5815 36.6111 44.1146 37.5089 43.3107 37.5643C42.6913 37.6073 42.2879 37.4313 42.1899 37.1757C42.0928 36.9207 42.3253 36.4555 42.4119 36.5041C42.4993 36.5547 42.8411 37.2135 43.3897 37.1779C43.9372 37.1427 44.0975 36.3207 44.1905 35.4349C44.2836 34.5496 44.45 32.4394 44.4798 32.2399Z" fill="#ED1C24"/>
<path fill-rule="evenodd" clip-rule="evenodd" d="M47.0878 32.404C47.0878 32.404 45.947 34.4292 46.9328 34.463C47.7642 34.4914 48.3926 33.7019 48.3926 33.7019C48.3926 33.7019 48.7621 32.325 48.8479 32.2902C48.9352 32.2539 49.4102 32.4231 49.3678 32.5785C49.3247 32.7346 48.5209 34.3259 49.3364 34.4532C50.152 34.5808 50.7177 33.6738 50.7177 33.6738C50.7177 33.6738 51.2467 32.2786 51.3041 32.264C51.3616 32.2502 51.9703 32.3561 51.9208 32.6076C51.8346 33.0468 51.1207 33.8498 51.092 33.968C50.8542 34.4154 50.6662 35.3 50.5963 35.8424C50.5305 36.3478 50.5751 37.262 50.4889 37.3828C50.4031 37.5034 49.9803 37.5491 49.8087 37.4004C49.8087 37.4004 49.9164 36.3021 50.1097 35.5796C50.3025 34.8575 50.4674 34.4042 50.4674 34.4042C50.4674 34.4042 49.6366 35.148 49.0146 35.0552C48.3926 34.9627 48.3926 34.2552 48.3926 34.2552C48.3926 34.2552 47.5389 35.0672 46.6654 35.0248C45.7924 34.9826 45.9043 33.9643 45.9546 33.724C46.0041 33.4836 46.1859 32.6152 46.3762 32.3329C46.4745 32.1873 46.6049 32.2194 46.7335 32.2618C46.8624 32.3048 47.0878 32.4044 47.0878 32.404Z" fill="#ED1C24"/>
<path fill-rule="evenodd" clip-rule="evenodd" d="M54.4247 34.3046C54.9438 33.8408 55.0039 33.1074 54.7169 32.7612C54.4371 32.4238 53.7542 32.4302 53.1697 32.9348C52.6422 33.3893 52.5586 34.1384 52.8358 34.4408C53.1716 34.8081 53.9047 34.7688 54.4247 34.3046ZM55.4089 32.6866C55.7892 33.329 55.3627 34.2754 54.4564 34.8017C53.5504 35.3273 52.5094 35.2318 52.1272 34.5913C51.813 34.0635 52.165 32.9869 53.0797 32.4766C54.0953 31.9106 55.0285 32.045 55.4089 32.6866Z" fill="#ED1C24"/>
<path fill-rule="evenodd" clip-rule="evenodd" d="M57.8809 35.3778C57.7292 35.8783 56.959 35.6192 56.8905 35.377C56.655 34.5595 58.0525 34.6729 57.8809 35.3778Z" fill="#ED1C24"/>
<path fill-rule="evenodd" clip-rule="evenodd" d="M0.230041 34.8557C0.192608 34.843 0.172568 34.804 0.175971 34.7546C0.186936 34.5933 0.233066 34.1718 0.558622 34.1718C0.98173 34.1718 1.68729 34.7314 2.4178 34.6318C2.4178 34.6318 3.12979 34.6225 3.17782 33.9827C3.22584 33.3433 2.43823 32.8324 2.08809 32.555C1.75195 32.288 0.909511 31.6498 1.0116 30.8187C1.13335 29.8297 2.33348 29.6466 2.73618 29.6418C3.28255 29.6343 4.37303 29.875 4.25733 30.4272C4.23237 30.614 4.01345 30.8303 3.80019 30.8771C3.74196 30.7948 3.71436 30.7592 3.6671 30.6986C3.50753 30.4934 3.15172 29.9944 2.54221 30.0255C1.7856 30.0629 1.68805 30.7023 1.6854 30.9209C1.68162 31.2039 1.81396 31.5315 2.85717 32.327C3.85199 33.0865 3.93366 33.5852 3.85955 33.9827C3.78582 34.381 3.24134 35.1046 2.01322 35.1114C0.997231 35.1178 0.410024 34.916 0.230041 34.8557Z" fill="#ED1C24"/>
<path fill-rule="evenodd" clip-rule="evenodd" d="M29.6579 33.9748C30.3064 33.234 30.3196 33.0483 30.3196 33.0483C30.3196 33.0483 30.1158 32.5571 29.5721 32.5384C29.028 32.5193 28.3984 33.1524 28.274 33.8797C28.1508 34.607 28.7731 34.9818 29.6579 33.9748ZM17.8543 32.2752C17.8513 32.4171 16.7434 34.4835 17.9004 34.5082C18.6729 34.5108 19.9604 33.371 19.9604 33.371C19.9604 33.371 20.2243 32.3793 20.2055 32.3621C20.1865 32.3441 19.5127 32.3995 19.4927 32.349C19.4723 32.2988 19.5498 32.0143 19.5861 31.987C19.6231 31.9582 20.2622 32.0113 20.2682 31.972C20.2746 31.9338 20.3442 31.2604 20.2685 31.1076C20.2685 31.1076 20.6346 30.8332 20.9651 30.8969C21.0736 30.9287 21.1987 31.0208 20.931 31.9241C20.931 31.9241 21.6854 31.9065 22.0102 31.7796C22.0771 31.853 22.13 32.0761 22.0158 32.2067C21.902 32.3385 20.8153 32.331 20.8153 32.331C20.8153 32.331 20.4281 33.4189 20.376 34.1204C20.3605 34.3042 20.4728 34.6355 20.9681 34.5947C21.6063 34.5416 22.417 33.8786 22.7105 33.5214C22.7105 33.5214 23.0118 32.1348 23.1668 31.1084C23.1902 30.8583 23.244 30.2144 23.1872 30.0999C23.1872 30.0999 23.5706 29.8442 23.9007 29.9082C24.0062 29.9389 24.0528 30.1332 23.8171 31.0998C23.6598 31.9166 23.1593 33.9729 23.2572 34.2144C23.4046 34.0134 24.9527 32.1083 25.4366 32.0042C25.7017 31.9567 25.8677 32.231 25.8401 32.4018C25.8125 32.5714 25.3897 34.479 26.4314 34.4697C27.1994 34.4656 27.8029 33.4522 27.8029 33.4522C27.8029 33.4522 28.3538 32.1296 29.7562 32.1225C30.5866 32.1581 30.9435 32.7664 30.9435 32.7664C30.9435 32.7664 30.5616 34.442 31.595 34.4816C32.2748 34.4884 32.6968 33.9643 32.6968 33.9643C32.6968 33.9643 32.9547 34.1488 32.9547 34.2125C32.9547 34.2758 32.2034 34.9836 31.2804 34.9769C30.3574 34.9702 30.2928 33.9643 30.2928 33.9643C30.2928 33.9643 29.3838 35.0196 28.3753 35.084C27.6524 35.1334 27.6456 34.2188 27.6456 34.2188C27.6456 34.2188 27.0742 34.9769 26.0802 34.9769C25.0854 34.9769 24.9674 33.9149 25.1137 32.8734C25.1254 32.8027 24.8974 32.9307 24.7193 33.101C24.542 33.2702 23.8675 33.9527 23.4663 34.9417C23.4122 35.0125 22.7187 34.92 22.7169 34.7998C22.715 34.6793 22.7607 34.1272 22.7263 34.1204C22.6915 34.1126 21.6335 35.0376 20.4766 35.0686C19.4484 35.0978 19.8492 33.9916 19.8492 33.9916C19.8492 33.9916 18.7221 34.8878 17.7095 34.9507C16.6969 35.0147 16.8183 33.9572 16.8183 33.9572C16.8183 33.9572 15.9395 34.9949 15.0835 34.956C13.8679 34.9002 14.6967 32.7076 14.9859 32.2483C14.9897 32.2419 15.0068 32.2284 15.0211 32.2284C15.1213 32.23 15.7342 32.1075 15.7304 32.2161C15.7267 32.3392 15.4207 32.6361 15.2634 32.9902C15.1061 33.3444 14.6521 34.2226 15.4132 34.3506C16.1751 34.4775 16.8032 33.1886 16.8032 33.1886C16.8032 33.1886 17.0232 32.5242 17.1401 32.2456C17.351 32.1936 17.8555 32.1663 17.8543 32.2752Z" fill="#ED1C24"/>
<path fill-rule="evenodd" clip-rule="evenodd" d="M36.0639 31.0444C35.938 31.9447 35.6056 33.8849 35.5947 33.9702C35.5818 34.0687 35.6404 34.0268 35.6404 34.0268C36.0881 33.226 37.5298 31.8836 37.9087 31.8836C38.2747 31.8836 38.1934 32.3842 38.1934 32.3842C37.7926 32.2782 36.5195 33.441 36.5195 33.441C36.5195 33.441 36.8031 33.7386 37.3529 34.1702C37.9023 34.6026 38.6544 34.8429 38.6479 34.9065C38.6419 34.9702 38.3 35.2539 38.1469 35.2681C37.8036 35.3033 36.2193 33.7943 36.2193 33.7943C35.8057 34.1414 35.6071 34.808 35.5697 34.8856C35.5319 34.963 35.2279 34.9488 35.0502 34.9421C34.914 34.9368 35.3579 32.4856 35.4835 30.9466C35.51 30.6184 35.4948 30.2058 35.4435 30.1029C35.4438 30.1029 35.8068 29.8042 36.1365 29.8678C36.2435 29.8992 36.1392 30.5057 36.0639 31.0444Z" fill="#ED1C24"/>
<path fill-rule="evenodd" clip-rule="evenodd" d="M57.8412 33.3928C57.881 33.9106 58.1244 33.8627 58.073 33.9829C57.9872 34.1824 57.8087 34.3089 57.6268 34.2883C57.1534 34.2352 57.2068 33.2327 57.2915 32.5438C57.3977 31.6746 57.5872 31.1202 57.6401 30.5676C57.67 30.2588 57.6586 29.8714 57.6091 29.7744C57.6091 29.7744 58.0356 29.509 58.3615 29.5682C58.4671 29.5981 58.3578 30.1678 58.2772 30.6744C58.2073 31.1194 57.7274 32.6502 57.8412 33.3928Z" fill="#ED1C24"/>
<path fill-rule="evenodd" clip-rule="evenodd" d="M45.5672 30.3144C45.7007 30.5379 45.5611 30.7172 45.3453 30.8853C45.1055 31.0724 44.7403 31.0803 44.6454 30.8924C44.549 30.7052 44.6787 30.4237 44.9335 30.2639C45.188 30.1044 45.4602 30.1347 45.5672 30.3144Z" fill="#ED1C24"/>
</g>
<defs>
<clipPath id="clip0_0_48255">
<rect width="58.5833" height="38" fill="white"/>
</clipPath>
</defs>
</svg>
